<svg width="800" height="600" viewBox="0 0 800 600" xmlns="http://www.w3.org/2000/svg">
  <defs>
    <linearGradient id="certGradient" x1="0%" y1="0%" x2="100%" y2="100%">
      <stop offset="0%" style="stop-color:#f59e0b;stop-opacity:0.1" />
      <stop offset="100%" style="stop-color:#ea580c;stop-opacity:0.1" />
    </linearGradient>
  </defs>
  
  <!-- Background -->
  <rect width="800" height="600" fill="#ffffff"/>
  <rect width="800" height="600" fill="url(#certGradient)"/>
  
  <!-- Border -->
  <rect x="20" y="20" width="760" height="560" fill="none" stroke="#f59e0b" stroke-width="3"/>
  <rect x="30" y="30" width="740" height="540" fill="none" stroke="#ea580c" stroke-width="1"/>
  
  <!-- Title -->
  <text x="400" y="100" font-family="serif" font-size="48" font-weight="bold" fill="#1e293b" text-anchor="middle">
    Certificate of Excellence
  </text>
  
  <!-- Subtitle -->
  <text x="400" y="150" font-family="sans-serif" font-size="20" fill="#64748b" text-anchor="middle">
    This certifies that
  </text>
  
  <!-- Name -->
  <text x="400" y="220" font-family="serif" font-size="36" font-weight="bold" fill="#f59e0b" text-anchor="middle">
    Divyanshu Tiwari
  </text>
  
  <!-- Description -->
  <text x="400" y="280" font-family="sans-serif" font-size="18" fill="#475569" text-anchor="middle">
    has successfully completed the
  </text>
  <text x="400" y="310" font-family="sans-serif" font-size="22" font-weight="bold" fill="#1e293b" text-anchor="middle">
    Young Innovators Internship Challenge
  </text>
  
  <!-- Organization -->
  <text x="400" y="380" font-family="sans-serif" font-size="18" fill="#64748b" text-anchor="middle">
    Scaler School of Technology
  </text>
  
  <!-- Award Icon -->
  <circle cx="400" cy="470" r="40" fill="#f59e0b" opacity="0.2"/>
  <path d="M 400 440 L 410 460 L 430 465 L 415 480 L 418 500 L 400 490 L 382 500 L 385 480 L 370 465 L 390 460 Z" fill="#f59e0b"/>
  
  <!-- Footer -->
  <line x1="200" y1="530" x2="340" y2="530" stroke="#94a3b8" stroke-width="1"/>
  <text x="270" y="550" font-family="sans-serif" font-size="12" fill="#64748b" text-anchor="middle">
    Signature
  </text>
  
  <line x1="460" y1="530" x2="600" y2="530" stroke="#94a3b8" stroke-width="1"/>
  <text x="530" y="550" font-family="sans-serif" font-size="12" fill="#64748b" text-anchor="middle">
    Date
  </text>
</svg>
