<svg width="120" height="120" viewBox="0 0 120 120" xmlns="http://www.w3.org/2000/svg">
  <defs>
    <linearGradient id="logoGradient" x1="0%" y1="0%" x2="100%" y2="100%">
      <stop offset="0%" style="stop-color:#f59e0b;stop-opacity:1" />
      <stop offset="100%" style="stop-color:#ea580c;stop-opacity:1" />
    </linearGradient>
  </defs>
  
  <!-- Background circle with gradient -->
  <circle cx="60" cy="60" r="55" fill="url(#logoGradient)" opacity="0.1"/>
  
  <!-- D Letter -->
  <path d="M 25 30 L 25 90 L 45 90 C 60 90 70 80 70 60 C 70 40 60 30 45 30 Z M 35 40 L 45 40 C 54 40 60 46 60 60 C 60 74 54 80 45 80 L 35 80 Z" fill="url(#logoGradient)"/>
  
  <!-- T Letter -->
  <path d="M 55 30 L 95 30 L 95 40 L 80 40 L 80 90 L 70 90 L 70 40 L 55 40 Z" fill="url(#logoGradient)"/>
</svg>
